<svg width="24" height="24" viewBox="0 0 24 24" fill="none" xmlns="http://www.w3.org/2000/svg">
<path opacity="0.4" d="M12.93 4.79004H7.35C3.25 4.79004 2 6.04004 2 10.14V13.86C2 17.96 3.25 19.21 7.35 19.21H12.93C17.03 19.21 18.28 17.96 18.28 13.86V10.14C18.28 6.04004 17.03 4.79004 12.93 4.79004Z" fill="#151B33"/>
<path d="M20.4202 8.99998C20.2802 8.98998 20.1002 8.97998 19.9002 8.97998C19.5102 8.97998 19.2002 9.28998 19.2002 9.67998V14.33C19.2002 14.72 19.5102 15.03 19.9002 15.03C20.1002 15.03 20.2702 15.02 20.4402 15.01C22.0002 14.83 22.0002 13.73 22.0002 12.93V11.07C22.0002 10.27 22.0002 9.16998 20.4202 8.99998Z" fill="#151B33"/>
<path d="M6.38007 14.7501C6.32007 14.7501 6.26007 14.7401 6.20007 14.7301C5.80007 14.6301 5.55007 14.2201 5.65007 13.8201C5.95007 12.6301 5.95007 11.3701 5.65007 10.1801C5.55007 9.7801 5.79007 9.3701 6.20007 9.2701C6.60007 9.1701 7.00007 9.4201 7.10007 9.8201C7.46007 11.2501 7.46007 12.7601 7.10007 14.1801C7.02007 14.5201 6.71007 14.7501 6.38007 14.7501Z" fill="#151B33"/>
<path d="M9.88007 14.7499C9.82007 14.7499 9.76007 14.7399 9.70007 14.7299C9.30007 14.6299 9.05007 14.2199 9.15007 13.8199C9.45007 12.6299 9.45007 11.3699 9.15007 10.1799C9.05007 9.77995 9.29007 9.36995 9.70007 9.26995C10.1001 9.16995 10.5101 9.40995 10.6101 9.81995C10.9701 11.2499 10.9701 12.7599 10.6101 14.1799C10.5201 14.5199 10.2101 14.7499 9.88007 14.7499Z" fill="#151B33"/>
<path d="M13.3801 14.7499C13.3201 14.7499 13.2601 14.7399 13.2001 14.7299C12.8001 14.6299 12.5501 14.2199 12.6501 13.8199C12.9501 12.6299 12.9501 11.3699 12.6501 10.1799C12.5501 9.77995 12.7901 9.36995 13.2001 9.26995C13.6001 9.16995 14.0101 9.40995 14.1101 9.81995C14.4701 11.2499 14.4701 12.7599 14.1101 14.1799C14.0201 14.5199 13.7101 14.7499 13.3801 14.7499Z" fill="#151B33"/>
</svg>
