<svg width="24" height="24" viewBox="0 0 24 24" fill="none" xmlns="http://www.w3.org/2000/svg">
<path d="M15.59 1.75C12.62 1.75 10.21 4.16 10.21 7.13C10.21 10.1 12.62 12.51 15.59 12.51C18.56 12.51 20.97 10.1 20.97 7.13C20.97 4.16 18.56 1.75 15.59 1.75Z" fill="#151B33"/>
<path d="M6.35979 13.03C4.52979 13.03 3.02979 14.52 3.02979 16.36C3.02979 18.2 4.51979 19.69 6.35979 19.69C8.18979 19.69 9.68979 18.2 9.68979 16.36C9.68979 14.52 8.18979 13.03 6.35979 13.03Z" fill="#151B33"/>
<path d="M16.6201 16.62C15.0701 16.62 13.8101 17.88 13.8101 19.43C13.8101 20.98 15.0701 22.24 16.6201 22.24C18.1701 22.24 19.4301 20.98 19.4301 19.43C19.4301 17.88 18.1701 16.62 16.6201 16.62Z" fill="#151B33"/>
</svg>
