<svg width="24" height="24" viewBox="0 0 24 24" fill="none" xmlns="http://www.w3.org/2000/svg">
<path d="M15.59 12.26C18.42 12.26 20.72 9.96 20.72 7.13C20.72 4.3 18.42 2 15.59 2C12.76 2 10.46 4.3 10.46 7.13C10.46 8.43 10.94 9.60999 11.74 10.51" stroke="#151B33" stroke-width="1.5" stroke-miterlimit="10" stroke-linecap="round" stroke-linejoin="round"/>
<path d="M3.27979 16.36C3.27979 18.06 4.65977 19.44 6.35977 19.44C8.05977 19.44 9.43979 18.06 9.43979 16.36C9.43979 14.66 8.05977 13.28 6.35977 13.28" stroke="#151B33" stroke-width="1.5" stroke-miterlimit="10" stroke-linecap="round" stroke-linejoin="round"/>
<path d="M16.6201 22C18.0339 22 19.1801 20.8539 19.1801 19.44C19.1801 18.0262 18.0339 16.88 16.6201 16.88C15.2062 16.88 14.0601 18.0262 14.0601 19.44C14.0601 20.8539 15.2062 22 16.6201 22Z" stroke="#151B33" stroke-width="1.5" stroke-miterlimit="10"/>
</svg>
