<svg width="24" height="24" viewBox="0 0 24 24" fill="none" xmlns="http://www.w3.org/2000/svg">
<path opacity="0.4" d="M9.50978 4.22989L18.0698 8.50989C21.9098 10.4299 21.9098 13.5699 18.0698 15.4899L9.50978 19.7699C3.74978 22.6499 1.39978 20.2899 4.27978 14.5399L5.14978 12.8099C5.39978 12.2999 5.39978 11.7099 5.14978 11.1999L4.27978 9.45989C1.39978 3.70989 3.75978 1.34989 9.50978 4.22989Z" fill="#151B33"/>
<path d="M14.8399 12.75H9.43994C9.02994 12.75 8.68994 12.41 8.68994 12C8.68994 11.59 9.02994 11.25 9.43994 11.25H14.8399C15.2499 11.25 15.5899 11.59 15.5899 12C15.5899 12.41 15.2499 12.75 14.8399 12.75Z" fill="#151B33"/>
</svg>
