<svg width="24" height="24" viewBox="0 0 24 24" fill="none" xmlns="http://www.w3.org/2000/svg">
<path d="M21.0702 5.23C19.4602 5.07 17.8502 4.95 16.2302 4.86V4.85L16.0102 3.55C15.8602 2.63 15.6402 1.25 13.3002 1.25H10.6802C8.35016 1.25 8.13016 2.57 7.97016 3.54L7.76016 4.82C6.83016 4.88 5.90016 4.94 4.97016 5.03L2.93016 5.23C2.51016 5.27 2.21016 5.64 2.25016 6.05C2.29016 6.46 2.65016 6.76 3.07016 6.72L5.11016 6.52C10.3502 6 15.6302 6.2 20.9302 6.73C20.9602 6.73 20.9802 6.73 21.0102 6.73C21.3902 6.73 21.7202 6.44 21.7602 6.05C21.7902 5.64 21.4902 5.27 21.0702 5.23Z" fill="#151B33"/>
<path d="M19.2302 8.14C18.9902 7.89 18.6602 7.75 18.3202 7.75H5.68024C5.34024 7.75 5.00024 7.89 4.77024 8.14C4.54024 8.39 4.41024 8.73 4.43024 9.08L5.05024 19.34C5.16024 20.86 5.30024 22.76 8.79024 22.76H15.2102C18.7002 22.76 18.8402 20.87 18.9502 19.34L19.5702 9.09C19.5902 8.73 19.4602 8.39 19.2302 8.14ZM13.6602 17.75H10.3302C9.92024 17.75 9.58024 17.41 9.58024 17C9.58024 16.59 9.92024 16.25 10.3302 16.25H13.6602C14.0702 16.25 14.4102 16.59 14.4102 17C14.4102 17.41 14.0702 17.75 13.6602 17.75ZM14.5002 13.75H9.50024C9.09024 13.75 8.75024 13.41 8.75024 13C8.75024 12.59 9.09024 12.25 9.50024 12.25H14.5002C14.9102 12.25 15.2502 12.59 15.2502 13C15.2502 13.41 14.9102 13.75 14.5002 13.75Z" fill="#151B33"/>
</svg>
